<?xml version="1.0" encoding="utf-8"?>
<!-- Generator: Adobe Illustrator 21.0.0, SVG Export Plug-In . SVG Version: 6.00 Build 0)  -->
<svg version="1.1" xmlns="http://www.w3.org/2000/svg" xmlns:xlink="http://www.w3.org/1999/xlink" x="0px" y="0px"
	 viewBox="0 0 196.2 258.1" style="enable-background:new 0 0 196.2 258.1;" xml:space="preserve">
<style type="text/css">
	.st0{display:none;}
	.st1{display:inline;fill:#737373;}
	.st2{fill:#FFFFFF;}
</style>
<g id="Layer_2" class="st0">
	<rect x="-24.8" y="-42.9" class="st1" width="237.5" height="356.5"/>
</g>
<g id="Layer_1">
	<g>
		<path class="st2" d="M196.2,35.1c-0.4,1.6-1,3.1-1.2,4.7c-0.7,6.6-2.9,12.6-6.6,18.1c-1.7,2.6-3.3,5.2-4.9,7.9
			c0.3,0.3,0.6,0.5,0.9,0.8c1.1-1.7,2.3-3.4,3.4-5.1c0.3,0.3,0.6,0.6,0.9,0.9c-3.5,11.9-8.9,22.2-20.6,28.4
			c-11.6,6.1-23.5,11-36.2,14.1c-1.3,0.3-2.6,0.8-3.8,1.6c15.2-1.1,30.1-3.1,43-12.3c-4.3,7.6-11.9,11.1-18.9,15.3
			c12.9-1.5,23.7-8.4,34.8-14.3c0.2,0.3,0.4,0.5,0.6,0.8c-1,1.1-2,2.3-3,3.4c-7.1,7.2-13.3,14.9-17.2,24.3
			c-6.4,15.1-17.6,24.7-33.1,29.8c-10.6,3.5-21.1,7-32.2,8.3c10.2,2.4,19.8-1,29.5-3.2c-11.8,5.8-24.5,7.1-37.5,7.4
			c-0.1,0.3-0.2,0.7-0.2,1c2.8,1.2,5.5,2.4,9,3.9c-2.7-0.4-4.7-0.7-6.7-0.9c3.9,3.6,8.6,2.6,13.1,2.1c0,0.4,0,0.8,0,1.2
			c-3.2,0.1-6.3,0.3-9.5,0.5c-0.9,0.1-1.9,0.2-2.8,0.4c0.6,0.9,0.9,2.1,1.7,2.8c3.7,3.6,8.3,4.8,13.4,4.1c5.6-0.7,10.5-3.2,14.8-6.8
			c1.4-1.2,2.7-2.4,4.1-3.7c-2.4,8.5-7.8,14.1-15.6,17.7c-8,3.6-16,3.8-24.3,0.8c4.8,6.6,11.5,5.3,18.2,4.5
			c-13.2,12.7-28.9,19.3-46.8,21.2c4.4,1.9,8.7,0.1,13.8-0.2c-6.9,3.9-13.8,5.2-20.9,6.6c3,0,6.1,0,9.1,0c-7.3,5-15.3,3.8-23.9,3.5
			c2.7,3.4,5,6.2,7.2,9c-0.2,0.1-0.5,0.4-0.7,0.4c-5.3-2.1-11-0.4-16.4-1.5c-0.8-0.2-1.5-0.5-2.2-0.7c0.4-0.7,0.6-1.5,1.1-2.1
			c3.2-3.9,6.4-7.7,9.6-11.5c37.9-44,69.6-92.3,97.1-143.3c2.7-4.9,5.4-9.8,7.5-15c-33.5,58.7-73.3,112.7-116.6,163.7
			c0.7-12.2,0.8-24.7,2.3-37c0.9-7.9,3.7-15.7,5.6-23.5c0.3,0.1,0.7,0.1,1,0.2c-0.1,2.1-0.2,4.1-0.4,6.2c0.4,0.1,0.7,0.2,1.1,0.4
			c2.5-13.6,11.1-24.2,16.9-36.3c-1.2,7.9-1.3,15.7,1.6,23.4c0-1.7,0.1-3.4,0-5.1c-1.1-12.5,2.4-24.1,7.3-35.3
			c1.5-3.4,3.7-6.7,6.2-9.6c6.3-7.4,11.2-15,8-25.6c2.7,2.3,3.7,5.1,4.4,8.2c0.2,0.7,0.8,1.3,1.2,1.9c0.4-0.7,1-1.3,1.2-2
			c1.6-4.7,0-8.6-3.3-11.8c-1.7-1.6-3.8-2.6-5.7-4c-0.6-0.4-1.1-1.1-1.7-1.6c0.7-0.3,1.4-0.9,2.1-0.9c6.8-0.6,12.6,1.5,16.4,7.4
			c1.5,2.4,2.4,5.1,3.6,7.6c0.4,0.9,0.9,1.7,1.6,2.5c-0.5-13.1-3.1-26,0-39.1c0.5,1.7,0.9,3.5,1.5,5.6c8.8-19,24-31.5,39.1-44.2
			c1-0.9,2.1-1.8,1.5,0.7c0.4,0.1,1,0.3,1.2,0.1c6.4-7.1,14.9-9.6,23.9-11.3c0.1,0,0.2-0.2,0.3-0.4c0.3,0,0.7,0,1,0
			c0.8,0.7,1.6,1.6,2.6,2c4.6,2.1,4.7,2.1,3.6,6.9c0,0.2,0.3,0.5,0.5,0.7c4.2-3.3,4.2-3.3,8.2,0.1c0.5,0.4,1,0.9,1.5,1.3
			c4.7,3.5,4.7,3.5,2.4,9c-0.1,0.2,0.2,0.5,0.9,2.1c1.1-1.7,1.9-3.1,2.7-4.3c2.1,5.2,0.2,9.5-2.5,13.2c-3.9,5.4-8.3,10.4-12.5,15.5
			c-1.1,1.3-2.3,2.5-3.5,3.7c0.2,0.2,0.5,0.5,0.7,0.7c9.7-5.8,17.7-13.8,26.4-21C196.2,31.8,196.2,33.4,196.2,35.1z M143.2,117.3
			c-6.1,0.4-12.2,0.8-18.3,1.2c-2.2,0.1-4.3,0.3-6.4,0.5c-0.4,0-0.8,0.5-1.2,0.7c0.4,0.4,0.8,1.1,1.3,1.2
			C127.1,121.6,135.4,121.3,143.2,117.3z"/>
		<path class="st2" d="M0.2,257.1c6.3-7.5,12.5-15,18.8-22.5c0.7-0.9,1.4-1.9,2.2-2.7c0.2-0.2,0.9-0.1,1.4-0.1
			c-1.2,1.9,1.8,3.8-0.6,6.2c-6.2,6.4-11.9,13.3-17.8,20c-1.2,0-2.3,0-3.5,0C0.5,258,0.3,257.4,0.2,257.1z"/>
	</g>
</g>
</svg>
